# xmcd
#
# Track frame offsets: 
#        150
#        10425
#        19650
#        34650
#        46350
#        69225
#        99900
#        121950
#        144674
#        180225
#        195000
#        222900
#        244725
#
# Disc length: 3492 seconds
#
# Revision: 1
# Processed by: cddbd v1.5.2PL0 Copyright (c) Steve Scherf et al.
# Submitted via: ExactAudioCopy v0.99pb5
#
DISCID=a10da20d
DTITLE=Aki Takase - Yokohama
DYEAR=2009
DGENRE=Jazz
TTITLE0=Preface
TTITLE1=Shower
TTITLE2=Kawaraban
TTITLE3=Bella Lux
TTITLE4=Vol
TTITLE5=Ligne de Fuite
TTITLE6=Contre Contre
TTITLE7=Yokohama
TTITLE8=Le Temps D'apres
TTITLE9=Kurofune
TTITLE10=Raw Silk
TTITLE11=Windhoek Suite
TTITLE12=Buen Apetito
EXTD=YEAR: 2009
EXTT0=
EXTT1=
EXTT2=
EXTT3=
EXTT4=
EXTT5=
EXTT6=
EXTT7=
EXTT8=
EXTT9=
EXTT10=
EXTT11=
EXTT12=
PLAYORDER=
